<svg width="32" height="32" viewBox="0 0 32 32" fill="none" xmlns="http://www.w3.org/2000/svg">
<path d="M26.6667 2.66663L5.33335 2.66663C3.86059 2.66663 2.66669 3.86053 2.66669 5.33329L2.66669 10.6666C2.66669 12.1394 3.86059 13.3333 5.33335 13.3333L26.6667 13.3333C28.1394 13.3333 29.3334 12.1394 29.3334 10.6666V5.33329C29.3334 3.86053 28.1394 2.66663 26.6667 2.66663Z" stroke="#87DA76" stroke-width="2" stroke-linecap="round" stroke-linejoin="round"/>
<path d="M26.6667 18.6666L5.33335 18.6666C3.86059 18.6666 2.66669 19.8605 2.66669 21.3333L2.66669 26.6666C2.66669 28.1394 3.86059 29.3333 5.33335 29.3333L26.6667 29.3333C28.1394 29.3333 29.3334 28.1394 29.3334 26.6666V21.3333C29.3334 19.8605 28.1394 18.6666 26.6667 18.6666Z" stroke="#87DA76" stroke-width="2" stroke-linecap="round" stroke-linejoin="round"/>
<path d="M8 8H8.01333" stroke="#87DA76" stroke-width="2" stroke-linecap="round" stroke-linejoin="round"/>
<path d="M8 24H8.01333" stroke="#87DA76" stroke-width="2" stroke-linecap="round" stroke-linejoin="round"/>
</svg>
