<svg width="15" height="15" viewBox="0 0 15 15" fill="none" xmlns="http://www.w3.org/2000/svg">
<path d="M13.7267 8.94004L8.94671 13.72C8.82288 13.844 8.67583 13.9424 8.51396 14.0095C8.3521 14.0766 8.17859 14.1111 8.00337 14.1111C7.82815 14.1111 7.65465 14.0766 7.49279 14.0095C7.33092 13.9424 7.18387 13.844 7.06004 13.72L1.33337 8.00004V1.33337H8.00004L13.7267 7.06004C13.975 7.30986 14.1144 7.64779 14.1144 8.00004C14.1144 8.35229 13.975 8.69022 13.7267 8.94004Z" fill="#FFE455"/>
<path d="M4.66671 4.66671H4.67337M13.7267 8.94004L8.94671 13.72C8.82288 13.844 8.67583 13.9424 8.51396 14.0095C8.3521 14.0766 8.17859 14.1111 8.00337 14.1111C7.82815 14.1111 7.65465 14.0766 7.49279 14.0095C7.33092 13.9424 7.18387 13.844 7.06004 13.72L1.33337 8.00004V1.33337H8.00004L13.7267 7.06004C13.975 7.30986 14.1144 7.64779 14.1144 8.00004C14.1144 8.35229 13.975 8.69022 13.7267 8.94004Z" stroke="#14213D" stroke-width="1.2" stroke-linecap="round" stroke-linejoin="round"/>
</svg>
