<svg width="16" height="16" viewBox="0 0 16 16" fill="none" xmlns="http://www.w3.org/2000/svg">
<path d="M13.7263 8.94004L8.94634 13.72C8.82251 13.844 8.67546 13.9424 8.5136 14.0095C8.35173 14.0766 8.17823 14.1111 8.00301 14.1111C7.82779 14.1111 7.65429 14.0766 7.49242 14.0095C7.33056 13.9424 7.18351 13.844 7.05967 13.72L1.33301 8.00004V1.33337H7.99967L13.7263 7.06004C13.9747 7.30986 14.1141 7.64779 14.1141 8.00004C14.1141 8.35229 13.9747 8.69022 13.7263 8.94004Z" fill="#B1B4BB"/>
<path d="M4.66634 4.66671H4.67301M13.7263 8.94004L8.94634 13.72C8.82251 13.844 8.67546 13.9424 8.5136 14.0095C8.35173 14.0766 8.17823 14.1111 8.00301 14.1111C7.82779 14.1111 7.65429 14.0766 7.49242 14.0095C7.33056 13.9424 7.18351 13.844 7.05967 13.72L1.33301 8.00004V1.33337H7.99967L13.7263 7.06004C13.9747 7.30986 14.1141 7.64779 14.1141 8.00004C14.1141 8.35229 13.9747 8.69022 13.7263 8.94004Z" stroke="#495267" stroke-width="1.2" stroke-linecap="round" stroke-linejoin="round"/>
</svg>
