<svg width="17" height="16" viewBox="0 0 17 16" fill="none" xmlns="http://www.w3.org/2000/svg">
<path d="M14.2267 8.93992L9.44671 13.7199C9.32288 13.8439 9.17583 13.9422 9.01396 14.0093C8.8521 14.0764 8.6786 14.111 8.50337 14.111C8.32815 14.111 8.15465 14.0764 7.99279 14.0093C7.83092 13.9422 7.68387 13.8439 7.56004 13.7199L1.83337 7.99992V1.33325H8.50004L14.2267 7.05992C14.475 7.30974 14.6144 7.64767 14.6144 7.99992C14.6144 8.35217 14.475 8.6901 14.2267 8.93992Z" fill="#AD4AD0"/>
<path d="M5.16671 4.66659H5.17337M14.2267 8.93992L9.44671 13.7199C9.32288 13.8439 9.17583 13.9422 9.01396 14.0093C8.8521 14.0764 8.67859 14.111 8.50337 14.111C8.32815 14.111 8.15465 14.0764 7.99279 14.0093C7.83092 13.9422 7.68387 13.8439 7.56004 13.7199L1.83337 7.99992V1.33325H8.50004L14.2267 7.05992C14.475 7.30974 14.6144 7.64767 14.6144 7.99992C14.6144 8.35217 14.475 8.6901 14.2267 8.93992Z" stroke="#495267" stroke-width="1.2" stroke-linecap="round" stroke-linejoin="round"/>
</svg>
